# Alias OBJ Model File
# Exported from SketchUp, (c) 2000-2012 Trimble Navigation Limited
# File units = inches

mtllib Centered Gear.mtl

g Mesh1 Model

usemtl FrontColor
v -23.6182 -2.75 -6.41345
vt 23.6182 6.41345
vn 0 -1 -0
v -35.7625 -2.75 5.7308
vt 35.7625 -5.7308
v -35.7625 -2.75 -6.41345
vt 35.7625 6.41345
f 1/1/1 2/2/1 3/3/1

v -23.6182 -2.75 5.7308
vt 23.6182 -5.7308
f 2/2/1 1/1/1 4/4/1

v -21.2745 -2.75 11.3891
vt 21.2745 -11.3891
f 4/4/1 1/1/1 5/5/1

v -21.2745 -2.75 -12.0718
vt 21.2745 12.0718
f 5/5/1 1/1/1 6/6/1

vt -3.01147 -2.75
vn -0.92388 0 -0.382683
vt 3.11305 -2.75
v -23.6182 1.4375 -6.41345
vt 3.11305 1.4375
v -21.2745 1.4375 -12.0718
vt -3.01147 1.4375
f 6/7/2 1/8/2 7/9/2 8/10/2 

vt 23.6182 -2.75
vn 0 0 -1
vt 35.7625 -2.75
v -35.7625 1.4375 -6.41345
vt 35.7625 1.4375
vt 23.6182 1.4375
f 1/11/3 3/12/3 9/13/3 7/14/3 

vt -6.41345 -2.75
vn -1 0 -0
vt 5.7308 -2.75
v -35.7625 1.4375 5.7308
vt 5.7308 1.4375
vt -6.41345 1.4375
f 3/15/4 2/16/4 10/17/4 9/18/4 

vt -35.7625 -2.75
vn 0 0 1
vt -23.6182 -2.75
v -23.6182 1.4375 5.7308
vt -23.6182 1.4375
vt -35.7625 1.4375
f 2/19/5 4/20/5 11/21/5 10/22/5 

vt -3.74374 -2.75
vn -0.92388 0 0.382683
vt 2.38078 -2.75
v -21.2745 1.4375 11.3891
vt 2.38078 1.4375
vt -3.74374 1.4375
f 4/23/6 5/24/6 12/25/6 11/26/6 

vt 23.0967 -2.75
vn -0.707107 0 -0.707107
v -29.8618 -2.75 19.9764
vt 35.2409 -2.75
v -29.8618 1.4375 19.9764
vt 35.2409 1.4375
vt 23.0967 1.4375
f 5/27/7 13/28/7 14/29/7 12/30/7 

v -21.2745 -2.75 28.5637
vt 21.2745 -28.5637
vt 29.8618 -19.9764
f 5/5/1 15/31/1 13/32/1

v -12.6872 -2.75 19.9764
vt 12.6872 -19.9764
f 15/31/1 5/5/1 16/33/1

f 16/33/1 5/5/1 6/6/1

v -21.2745 -2.75 -29.2463
vt 21.2745 29.2463
f 16/33/1 6/6/1 17/34/1

v -29.8618 -2.75 -20.6591
vt 29.8618 20.6591
f 17/34/1 6/6/1 18/35/1

vt -35.7236 -2.75
vn -0.707107 0 0.707107
vt -23.5794 -2.75
vt -23.5794 1.4375
v -29.8618 1.4375 -20.6591
vt -35.7236 1.4375
f 18/36/8 6/37/8 8/38/8 19/39/8 

v -21.2745 1.4375 -29.2463
vt -21.2745 29.2463
vn 0 1 -0
vt -29.8618 20.6591
vt -21.2745 12.0718
f 20/40/9 19/41/9 8/42/9

vt -5.63696 -2.75
vt 6.5073 -2.75
vt 6.5073 1.4375
vt -5.63696 1.4375
f 17/43/7 18/44/7 19/45/7 20/46/7 

v -12.6872 -2.75 -20.6591
vt 23.5794 -2.75
vn 0.707107 0 -0.707107
vt 35.7236 -2.75
vt 35.7236 1.4375
v -12.6872 1.4375 -20.6591
vt 23.5794 1.4375
f 21/47/10 17/48/10 20/49/10 22/50/10 

vt 12.6872 20.6591
f 16/33/1 17/34/1 21/51/1

v -7.02888 -2.75 22.3202
vt 7.02888 -22.3202
f 16/33/1 21/51/1 23/52/1

v -9.76925 -2.75 -0.341327
vt 9.76925 0.341327
f 23/52/1 21/51/1 24/53/1

v -7.02888 -2.75 -23.0028
vt 7.02888 23.0028
f 25/54/1 24/53/1 21/51/1

v -9.46897 -2.75 -2.62217
vt 9.46897 2.62217
f 24/53/1 25/54/1 26/55/1

v -8.5886 -2.75 -4.74758
vt 8.5886 4.74758
f 26/55/1 25/54/1 27/56/1

v -7.18813 -2.75 -6.57271
vt 7.18813 6.57271
f 27/56/1 25/54/1 28/57/1

v -5.363 -2.75 -7.97318
vt 5.363 7.97318
f 28/57/1 25/54/1 29/58/1

v 5.11538 -2.75 -35.1471
vt -5.11538 35.1471
f 25/54/1 30/59/1 29/58/1

v -7.02888 -2.75 -35.1471
vt 7.02888 35.1471
f 30/59/1 25/54/1 31/60/1

vt -35.1471 -2.75
vt -23.0028 -2.75
v -7.02888 1.4375 -23.0028
vt -23.0028 1.4375
v -7.02888 1.4375 -35.1471
vt -35.1471 1.4375
f 31/61/4 25/62/4 32/63/4 33/64/4 

vt -2.30896 -2.75
vn -0.382683 0 -0.92388
vt 3.81556 -2.75
vt 3.81556 1.4375
vt -2.30896 1.4375
f 25/65/11 21/66/11 22/67/11 32/68/11 

v -9.76925 1.4375 -0.341327
vt -9.76925 0.341327
vt -7.02888 23.0028
vt -12.6872 20.6591
f 34/69/9 32/70/9 22/71/9

v -9.46897 1.4375 -2.62217
vt -9.46897 2.62217
f 32/70/9 34/69/9 35/72/9

vt -0.936736 -2.75
vn 1 0 -2.93948e-16
vt 1.36379 -2.75
vn 0.965926 0 0.258819
vt 1.36379 1.4375
vt -0.936736 1.4375
f 24/73/12 26/74/13 35/75/13 34/76/12 

vt -1.20105 -2.75
vt 1.09948 -2.75
vn 0.866025 0 0.5
v -8.5886 1.4375 -4.74758
vt 1.09948 1.4375
vt -1.20105 1.4375
f 26/77/13 27/78/14 36/79/14 35/80/13 

vt -1.4619 -2.75
vt 0.838623 -2.75
vn 0.707107 0 0.707107
v -7.18813 1.4375 -6.57271
vt 0.838623 1.4375
vt -1.4619 1.4375
f 27/81/14 28/82/15 37/83/15 36/84/14 

vt -1.70152 -2.75
vt 0.599009 -2.75
vn 0.5 0 0.866025
v -5.363 1.4375 -7.97318
vt 0.599009 1.4375
vt -1.70152 1.4375
f 28/85/15 29/86/16 38/87/16 37/88/15 

vt -1.90356 -2.75
v -3.23759 -2.75 -8.85355
vt 0.396961 -2.75
vn 0.258819 0 0.965926
v -3.23759 1.4375 -8.85355
vt 0.396961 1.4375
vt -1.90356 1.4375
f 29/89/16 39/90/17 40/91/17 38/92/16 

vt 3.23759 8.85355
f 29/58/1 30/59/1 39/93/1

v -0.956749 -2.75 -9.15383
vt 0.956749 9.15383
f 39/93/1 30/59/1 41/94/1

v 1.32409 -2.75 -8.85355
vt -1.32409 8.85355
f 41/94/1 30/59/1 42/95/1

v 3.4495 -2.75 -7.97318
vt -3.4495 7.97318
f 42/95/1 30/59/1 43/96/1

v 5.11538 -2.75 -23.0028
vt -5.11538 23.0028
f 43/96/1 30/59/1 44/97/1

vt 23.0028 -2.75
vn 1 0 -0
vt 35.1471 -2.75
v 5.11538 1.4375 -35.1471
vt 35.1471 1.4375
v 5.11538 1.4375 -23.0028
vt 23.0028 1.4375
f 44/98/18 30/99/18 45/100/18 46/101/18 

vt -5.11538 -2.75
vt 7.02888 -2.75
vt 7.02888 1.4375
vt -5.11538 1.4375
f 30/102/3 31/103/3 33/104/3 45/105/3 

vt -7.02888 35.1471
vt -5.363 7.97318
vt 5.11538 35.1471
f 33/106/9 38/107/9 45/108/9

f 32/70/9 38/107/9 33/106/9

vt -7.18813 6.57271
f 32/70/9 37/109/9 38/107/9

vt -8.5886 4.74758
f 32/70/9 36/110/9 37/109/9

f 32/70/9 35/72/9 36/110/9

vt -3.23759 8.85355
f 45/108/9 38/107/9 40/111/9

v -0.956749 1.4375 -9.15383
vt -0.956749 9.15383
f 45/108/9 40/111/9 47/112/9

vt -2.05427 -2.75
vt 0.24625 -2.75
vn 5.03911e-16 0 1
vt 0.24625 1.4375
vt -2.05427 1.4375
f 39/113/17 41/114/19 47/115/19 40/116/17 

vt -2.14338 -2.75
vt 0.157146 -2.75
vn -0.258819 0 0.965926
v 1.32409 1.4375 -8.85355
vt 0.157146 1.4375
vt -2.14338 1.4375
f 41/117/19 42/118/20 48/119/20 47/120/19 

vt -2.1648 -2.75
vt 0.135721 -2.75
vn -0.5 0 0.866025
v 3.4495 1.4375 -7.97318
vt 0.135721 1.4375
vt -2.1648 1.4375
f 42/121/20 43/122/21 49/123/21 48/124/20 

vt -2.11709 -2.75
v 5.27463 -2.75 -6.57271
vt 0.183435 -2.75
v 5.27463 1.4375 -6.57271
vt 0.183435 1.4375
vt -2.11709 1.4375
f 43/125/21 50/126/8 51/127/8 49/128/21 

vt -5.27463 6.57271
f 43/96/1 44/97/1 50/129/1

v 10.7737 -2.75 -20.6591
vt -10.7737 20.6591
f 50/129/1 44/97/1 52/130/1

vt -2.04772 -2.75
vn 0.382683 0 -0.92388
vt 4.0768 -2.75
vt 4.0768 1.4375
v 10.7737 1.4375 -20.6591
vt -2.04772 1.4375
f 52/131/22 44/132/22 46/133/22 53/134/22 

vt 5.11538 23.0028
vt 5.27463 6.57271
vt 10.7737 20.6591
f 46/135/9 51/136/9 53/137/9

vt 3.4495 7.97318
f 51/136/9 46/135/9 49/138/9

f 45/108/9 49/138/9 46/135/9

vt 1.32409 8.85355
f 45/108/9 48/139/9 49/138/9

f 45/108/9 47/112/9 48/139/9

v 6.6751 1.4375 -4.74758
vt 6.6751 4.74758
f 53/137/9 51/136/9 54/140/9

vt -2.00349 -2.75
v 6.6751 -2.75 -4.74758
vt 0.297037 -2.75
vn -0.866025 0 0.5
vt 0.297037 1.4375
vt -2.00349 1.4375
f 50/141/8 55/142/23 54/143/23 51/144/8 

vt -6.6751 4.74758
f 50/129/1 52/130/1 55/145/1

v 7.55547 -2.75 -2.62217
vt -7.55547 2.62217
f 55/145/1 52/130/1 56/146/1

v 7.85575 -2.75 -0.341327
vt -7.85575 0.341327
f 56/146/1 52/130/1 57/147/1

v 10.7737 -2.75 19.9764
vt -10.7737 -19.9764
f 57/147/1 52/130/1 58/148/1

v 19.361 -2.75 28.5637
vt -19.361 -28.5637
f 58/148/1 52/130/1 59/149/1

v 19.361 -2.75 -29.2463
vt -19.361 29.2463
f 59/149/1 52/130/1 60/150/1

vt -34.3706 -2.75
vt -22.2263 -2.75
vt -22.2263 1.4375
v 19.361 1.4375 -29.2463
vt -34.3706 1.4375
f 60/151/7 52/152/7 53/153/7 61/154/7 

v 19.361 1.4375 28.5637
vt 19.361 -28.5637
vt 19.361 29.2463
f 53/137/9 62/155/9 61/156/9

v 10.7737 1.4375 19.9764
vt 10.7737 -19.9764
f 53/137/9 63/157/9 62/155/9

v 7.85575 1.4375 -0.341327
vt 7.85575 0.341327
f 53/137/9 64/158/9 63/157/9

v 7.55547 1.4375 -2.62217
vt 7.55547 2.62217
f 53/137/9 65/159/9 64/158/9

f 53/137/9 54/140/9 65/159/9

vt -1.83174 -2.75
vt 0.468785 -2.75
vn -0.965926 0 0.258819
vt 0.468785 1.4375
vt -1.83174 1.4375
f 55/160/23 56/161/24 65/162/24 54/163/23 

vt -1.61355 -2.75
vt 0.686974 -2.75
vn -1 0 -2.95348e-15
vt 0.686974 1.4375
vt -1.61355 1.4375
f 56/164/24 57/165/25 64/166/25 65/167/24 

vt -1.36379 -2.75
v 7.55547 -2.75 1.93952
vt 0.936736 -2.75
vn -0.965926 0 -0.258819
v 7.55547 1.4375 1.93952
vt 0.936736 1.4375
vt -1.36379 1.4375
f 57/168/25 66/169/26 67/170/26 64/171/25 

vt -7.55547 -1.93952
f 58/148/1 66/172/1 57/147/1

v 6.6751 -2.75 4.06492
vt -6.6751 -4.06492
f 58/148/1 68/173/1 66/172/1

v 5.27463 -2.75 5.89005
vt -5.27463 -5.89005
f 58/148/1 69/174/1 68/173/1

v 5.11538 -2.75 22.3202
vt -5.11538 -22.3202
f 70/175/1 69/174/1 58/148/1

v 3.4495 -2.75 7.29052
vt -3.4495 -7.29052
f 69/174/1 70/175/1 71/176/1

v 5.11538 -2.75 34.4644
vt -5.11538 -34.4644
f 72/177/1 71/176/1 70/175/1

v 1.32409 -2.75 8.17089
vt -1.32409 -8.17089
f 72/177/1 73/178/1 71/176/1

v -0.956749 -2.75 8.47117
vt 0.956749 -8.47117
f 72/177/1 74/179/1 73/178/1

v -3.23759 -2.75 8.17089
vt 3.23759 -8.17089
f 72/177/1 75/180/1 74/179/1

v -5.363 -2.75 7.29052
vt 5.363 -7.29052
f 72/177/1 76/181/1 75/180/1

v -7.02888 -2.75 34.4644
vt 7.02888 -34.4644
f 77/182/1 76/181/1 72/177/1

f 23/52/1 76/181/1 77/182/1

v -7.18813 -2.75 5.89005
vt 7.18813 -5.89005
f 23/52/1 78/183/1 76/181/1

v -8.5886 -2.75 4.06492
vt 8.5886 -4.06492
f 23/52/1 79/184/1 78/183/1

v -9.46897 -2.75 1.93952
vt 9.46897 -1.93952
f 23/52/1 80/185/1 79/184/1

f 23/52/1 24/53/1 80/185/1

vt -0.686974 -2.75
vn 0.965926 0 -0.258819
vt 1.61355 -2.75
vt 1.61355 1.4375
v -9.46897 1.4375 1.93952
vt -0.686974 1.4375
f 80/186/27 24/187/12 34/188/12 81/189/27 

v -7.02888 1.4375 22.3202
vt -7.02888 -22.3202
vt -9.46897 -1.93952
f 34/69/9 82/190/9 81/191/9

f 22/71/9 82/190/9 34/69/9

v -12.6872 1.4375 19.9764
vt -12.6872 -19.9764
f 22/71/9 83/192/9 82/190/9

f 20/40/9 83/192/9 22/71/9

f 8/42/9 83/192/9 20/40/9

vt -21.2745 -11.3891
f 12/193/9 83/192/9 8/42/9

v -21.2745 1.4375 28.5637
vt -21.2745 -28.5637
f 12/193/9 84/194/9 83/192/9

vt -29.8618 -19.9764
f 84/194/9 12/193/9 14/195/9

vt -6.99001 -2.75
vt 5.15425 -2.75
vt 5.15425 1.4375
vt -6.99001 1.4375
f 13/196/8 15/197/8 84/198/8 14/199/8 

vt -35.2409 -2.75
vt -23.0967 -2.75
vt -23.0967 1.4375
vt -35.2409 1.4375
f 15/200/15 16/201/15 83/202/15 84/203/15 

vt -4.0768 -2.75
vn -0.382683 0 0.92388
vt 2.04772 -2.75
vt 2.04772 1.4375
vt -4.0768 1.4375
f 16/204/28 23/205/28 82/206/28 83/207/28 

vt 22.3202 -2.75
vt 34.4644 -2.75
v -7.02888 1.4375 34.4644
vt 34.4644 1.4375
vt 22.3202 1.4375
f 23/208/4 77/209/4 85/210/4 82/211/4 

vt -7.02888 -2.75
vt 5.11538 -2.75
v 5.11538 1.4375 34.4644
vt 5.11538 1.4375
vt -7.02888 1.4375
f 77/212/5 72/213/5 86/214/5 85/215/5 

vt -34.4644 -2.75
vt -22.3202 -2.75
v 5.11538 1.4375 22.3202
vt -22.3202 1.4375
vt -34.4644 1.4375
f 72/216/18 70/217/18 87/218/18 86/219/18 

vt -3.81556 -2.75
vn 0.382683 0 0.92388
vt 2.30896 -2.75
vt 2.30896 1.4375
vt -3.81556 1.4375
f 70/220/29 58/221/29 63/222/29 87/223/29 

vt 21.7436 -2.75
vt 33.8879 -2.75
vt 33.8879 1.4375
vt 21.7436 1.4375
f 58/224/8 59/225/8 62/226/8 63/227/8 

vt -6.5073 -2.75
v 27.9483 -2.75 19.9764
vt 5.63696 -2.75
v 27.9483 1.4375 19.9764
vt 5.63696 1.4375
vt -6.5073 1.4375
f 59/228/15 88/229/15 89/230/15 62/231/15 

v 19.361 -2.75 11.3891
vt -19.361 -11.3891
vt -27.9483 -19.9764
f 59/149/1 90/232/1 88/233/1

f 59/149/1 60/150/1 90/232/1

v 19.361 -2.75 -12.0718
vt -19.361 12.0718
f 90/232/1 60/150/1 91/234/1

v 27.9483 -2.75 -20.6591
vt -27.9483 20.6591
f 92/235/1 91/234/1 60/150/1

vt 22.2263 -2.75
vt 34.3706 -2.75
v 27.9483 1.4375 -20.6591
vt 34.3706 1.4375
v 19.361 1.4375 -12.0718
vt 22.2263 1.4375
f 91/236/15 92/237/15 93/238/15 94/239/15 

vt -5.15425 -2.75
vt 6.99001 -2.75
vt 6.99001 1.4375
vt -5.15425 1.4375
f 92/240/10 60/241/10 61/242/10 93/243/10 

vt 19.361 12.0718
vt 27.9483 20.6591
f 61/156/9 94/244/9 93/245/9

v 19.361 1.4375 11.3891
vt 19.361 -11.3891
f 61/156/9 95/246/9 94/244/9

f 61/156/9 62/155/9 95/246/9

vt 27.9483 -19.9764
f 89/247/9 95/246/9 62/155/9

vt -33.8879 -2.75
vt -21.7436 -2.75
vt -21.7436 1.4375
vt -33.8879 1.4375
f 88/248/10 90/249/10 95/250/10 89/251/10 

vt -3.11305 -2.75
vn 0.92388 0 0.382683
v 21.7047 -2.75 5.7308
vt 3.01147 -2.75
v 21.7047 1.4375 5.7308
vt 3.01147 1.4375
vt -3.11305 1.4375
f 90/252/30 96/253/30 97/254/30 95/255/30 

v 21.7047 -2.75 -6.41345
vt -21.7047 6.41345
vt -21.7047 -5.7308
f 90/232/1 98/256/1 96/257/1

f 98/256/1 90/232/1 91/234/1

vt -2.38078 -2.75
vn 0.92388 0 -0.382683
vt 3.74374 -2.75
vt 3.74374 1.4375
v 21.7047 1.4375 -6.41345
vt -2.38078 1.4375
f 98/258/31 91/259/31 94/260/31 99/261/31 

vt 21.7047 -5.7308
vt 21.7047 6.41345
f 94/244/9 97/262/9 99/263/9

f 97/262/9 94/244/9 95/246/9

v 33.849 1.4375 5.7308
vt 33.849 -5.7308
f 99/263/9 97/262/9 100/264/9

vt 21.7047 -2.75
v 33.849 -2.75 5.7308
vt 33.849 -2.75
vt 33.849 1.4375
vt 21.7047 1.4375
f 96/265/5 101/266/5 100/267/5 97/268/5 

v 33.849 -2.75 -6.41345
vt -33.849 6.41345
vt -33.849 -5.7308
f 96/257/1 102/269/1 101/270/1

f 96/257/1 98/256/1 102/269/1

vt -33.849 -2.75
vt -21.7047 -2.75
vt -21.7047 1.4375
v 33.849 1.4375 -6.41345
vt -33.849 1.4375
f 102/271/3 98/272/3 99/273/3 103/274/3 

vt 33.849 6.41345
f 99/263/9 100/264/9 103/275/9

vt -5.7308 -2.75
vt 6.41345 -2.75
vt 6.41345 1.4375
vt -5.7308 1.4375
f 101/276/18 102/277/18 103/278/18 100/279/18 

v 5.27463 1.4375 5.89005
vt 5.27463 -5.89005
vt 5.11538 -22.3202
f 104/280/9 87/281/9 63/157/9

v 3.4495 1.4375 7.29052
vt 3.4495 -7.29052
f 105/282/9 87/281/9 104/280/9

vt 5.11538 -34.4644
f 105/282/9 86/283/9 87/281/9

v 1.32409 1.4375 8.17089
vt 1.32409 -8.17089
f 106/284/9 86/283/9 105/282/9

v -0.956749 1.4375 8.47117
vt -0.956749 -8.47117
f 107/285/9 86/283/9 106/284/9

v -3.23759 1.4375 8.17089
vt -3.23759 -8.17089
f 108/286/9 86/283/9 107/285/9

v -5.363 1.4375 7.29052
vt -5.363 -7.29052
f 109/287/9 86/283/9 108/286/9

f 82/190/9 86/283/9 109/287/9

vt -7.02888 -34.4644
f 86/283/9 82/190/9 85/288/9

v -7.18813 1.4375 5.89005
vt -7.18813 -5.89005
f 110/289/9 82/190/9 109/287/9

v -8.5886 1.4375 4.06492
vt -8.5886 -4.06492
f 111/290/9 82/190/9 110/289/9

f 81/191/9 82/190/9 111/290/9

vt -0.468785 -2.75
vn 0.866025 0 -0.5
vt 1.83174 -2.75
vt 1.83174 1.4375
vt -0.468785 1.4375
f 79/291/32 80/292/27 81/293/27 111/294/32 

vt -0.297037 -2.75
vt 2.00349 -2.75
vt 2.00349 1.4375
vt -0.297037 1.4375
f 78/295/10 79/296/32 111/297/32 110/298/10 

vt -0.183435 -2.75
vn 0.5 0 -0.866025
vt 2.11709 -2.75
vt 2.11709 1.4375
vt -0.183435 1.4375
f 76/299/33 78/300/10 110/301/10 109/302/33 

vt -0.135721 -2.75
vn 0.258819 0 -0.965926
vt 2.1648 -2.75
vt 2.1648 1.4375
vt -0.135721 1.4375
f 75/303/34 76/304/33 109/305/33 108/306/34 

vt -0.157146 -2.75
vn 1.23178e-15 0 -1
vt 2.14338 -2.75
vt 2.14338 1.4375
vt -0.157146 1.4375
f 74/307/35 75/308/34 108/309/34 107/310/35 

vt -0.24625 -2.75
vn -0.258819 0 -0.965926
vt 2.05427 -2.75
vt 2.05427 1.4375
vt -0.24625 1.4375
f 73/311/36 74/312/35 107/313/35 106/314/36 

vt -0.396961 -2.75
vn -0.5 0 -0.866025
vt 1.90356 -2.75
vt 1.90356 1.4375
vt -0.396961 1.4375
f 71/315/37 73/316/36 106/317/36 105/318/37 

vt -0.599009 -2.75
vt 1.70152 -2.75
vt 1.70152 1.4375
vt -0.599009 1.4375
f 69/319/7 71/320/37 105/321/37 104/322/7 

vt -0.838623 -2.75
vn -0.866025 0 -0.5
vt 1.4619 -2.75
vt 1.4619 1.4375
v 6.6751 1.4375 4.06492
vt -0.838623 1.4375
f 68/323/38 69/324/7 104/325/7 112/326/38 

vt 6.6751 -4.06492
f 104/280/9 63/157/9 112/327/9

vt 7.55547 -1.93952
f 112/327/9 63/157/9 67/328/9

f 67/328/9 63/157/9 64/158/9

vt -1.09948 -2.75
vt 1.20105 -2.75
vt 1.20105 1.4375
vt -1.09948 1.4375
f 66/329/26 68/330/38 112/331/38 67/332/26 

vt -23.6182 6.41345
f 7/333/9 12/193/9 8/42/9

vt -23.6182 -5.7308
f 7/333/9 11/334/9 12/193/9

vt -35.7625 6.41345
f 9/335/9 11/334/9 7/333/9

vt -35.7625 -5.7308
f 11/334/9 9/335/9 10/336/9

